<svg xmlns="http://www.w3.org/2000/svg" version="1.1" xmlns:xlink="http://www.w3.org/1999/xlink" xmlns:svgjs="http://svgjs.dev/svgjs" width="1000" height="1000" viewBox="0 0 1000 1000"><rect width="1000" height="1000" fill="#ffffff"></rect><g transform="matrix(0.7,0,0,0.7,149.57575757575756,436.9954525768503)"><svg viewBox="0 0 396 71" data-background-color="#ffffff" preserveAspectRatio="xMidYMid meet" height="179" width="1000" xmlns="http://www.w3.org/2000/svg" xmlns:xlink="http://www.w3.org/1999/xlink"><g id="tight-bounds" transform="matrix(1,0,0,1,0.2400000000000091,0.20090077449026467)"><svg viewBox="0 0 395.52 70.59819845101946" height="70.59819845101946" width="395.52"><g><svg viewBox="0 0 395.52 70.59819845101946" height="70.59819845101946" width="395.52"><g><svg viewBox="0 0 580.7107247083475 103.65374945791679" height="70.59819845101946" width="395.52"><g><rect width="9.3010966137158" height="103.65374945791679" x="151.54120763987822" y="0" fill="#000000" opacity="1" stroke-width="0" stroke="transparent" fill-opacity="1" class="rect-i$-0" data-fill-palette-color="primary" rx="1%" id="i$-0" data-palette-color="#040000"></rect></g><g transform="matrix(1,0,0,1,185.19072470834743,0.2578451479052575)"><svg viewBox="0 0 395.52 103.13805916210627" height="103.13805916210627" width="395.52"><g id="textblocktransform"><svg viewBox="0 0 395.52 103.13805916210627" height="103.13805916210627" width="395.52" id="textblock"><g><svg viewBox="0 0 395.52 103.13805916210627" height="103.13805916210627" width="395.52"><g transform="matrix(1,0,0,1,0,0)"><svg width="395.52" viewBox="3.9 -35.8 139.38715481171548 36.349999999999994" height="103.13805916210627" data-palette-color="#040000"><g transform="matrix(1,0,0,1,0,0)"><g><svg width="7.8647698744769885" viewBox="3.18 -8.03 8.52 8.49" height="7.832000000000001" data-palette-color="#040000" id="scriptelement" x="135.4223849372385" y="-35.8"><path d="M7.44 0.46L7.44 0.46Q5.68 0.46 4.43-0.79 3.18-2.04 3.18-3.8L3.18-3.8Q3.18-5.54 4.43-6.78 5.68-8.03 7.44-8.03L7.44-8.03Q9.14-8.03 10.42-6.78 11.7-5.54 11.7-3.8L11.7-3.8Q11.7-2.63 11.11-1.66 10.51-0.69 9.55-0.12 8.59 0.46 7.44 0.46Z" opacity="1" transform="matrix(1,0,0,1,0,0)" fill="#040000" class="undefined-123" id="av-123"></path></svg></g></g><g class="undefined-text-0" data-fill-palette-color="primary" id="text-0"><path d="M3.9 0L3.9-35 15.95-35Q20.85-35 23.23-31.95 25.6-28.9 25.6-23.95L25.6-23.95Q25.6-20.8 25.05-18.18 24.5-15.55 22.45-13.53 20.4-11.5 16.3-11.5L16.3-11.5 7.5-11.5 7.5 0 3.9 0ZM15.85-15Q18.6-15 19.98-16.38 21.35-17.75 21.68-19.55 22-21.35 22-23.6L22-23.6Q22-27.75 20.35-29.63 18.7-31.5 15.65-31.5L15.65-31.5 7.5-31.5 7.5-15 15.85-15ZM51.5-9.25Q51.5-4.2 48.42-1.83 45.35 0.55 41.05 0.55L41.05 0.55Q38.35 0.55 35.95-0.43 33.55-1.4 32.02-3.6 30.5-5.8 30.5-9.25L30.5-9.25 30.5-25.35Q30.5-30.5 33.32-33.15 36.15-35.8 41.1-35.8L41.1-35.8Q46.05-35.8 48.77-33 51.5-30.2 51.5-25.3L51.5-25.3 51.5-9.25ZM47.9-25.1Q47.9-28.55 46.12-30.35 44.35-32.15 41-32.15L41-32.15Q37.65-32.15 35.87-30.38 34.1-28.6 34.1-25.1L34.1-25.1 34.1-9.55Q34.1-6.35 36-4.67 37.9-3 41-3L41-3Q44.1-3 46-4.67 47.9-6.35 47.9-9.65L47.9-9.65 47.9-25.1ZM60.4-9.15Q60.55-7.55 61.57-6.13 62.59-4.7 64.34-3.83 66.09-2.95 68.4-2.95L68.4-2.95Q71.95-2.95 74.22-4.58 76.5-6.2 76.5-9.3L76.5-9.3Q76.5-11.5 75.3-12.98 74.09-14.45 72.34-15.33 70.59-16.2 67.55-17.35L67.55-17.35Q64.3-18.55 62.3-19.58 60.3-20.6 58.92-22.38 57.55-24.15 57.55-26.9L57.55-26.9Q57.55-29.1 58.8-31.08 60.05-33.05 62.57-34.27 65.09-35.5 68.8-35.5L68.8-35.5Q71.25-35.5 72.84-35.15 74.45-34.8 76.09-34L76.09-34 75-30.6Q71.9-31.95 68.9-31.95L68.9-31.95Q65.34-31.95 63.32-30.53 61.3-29.1 61.34-26.65L61.34-26.65Q61.34-25.15 62.4-24.08 63.45-23 65-22.25 66.55-21.5 69.2-20.55L69.2-20.55Q72.75-19.25 75-18.07 77.25-16.9 78.82-14.83 80.4-12.75 80.4-9.65L80.4-9.65Q80.4-5.05 77.47-2.25 74.55 0.55 68.45 0.55L68.45 0.55Q64.75 0.55 62.12-0.83 59.5-2.2 58.12-4.38 56.75-6.55 56.65-8.9L56.65-8.9 60.4-9.15ZM88.44-9.15Q88.59-7.55 89.62-6.13 90.64-4.7 92.39-3.83 94.14-2.95 96.44-2.95L96.44-2.95Q99.99-2.95 102.27-4.58 104.54-6.2 104.54-9.3L104.54-9.3Q104.54-11.5 103.34-12.98 102.14-14.45 100.39-15.33 98.64-16.2 95.59-17.35L95.59-17.35Q92.34-18.55 90.34-19.58 88.34-20.6 86.97-22.38 85.59-24.15 85.59-26.9L85.59-26.9Q85.59-29.1 86.84-31.08 88.09-33.05 90.62-34.27 93.14-35.5 96.84-35.5L96.84-35.5Q99.29-35.5 100.89-35.15 102.49-34.8 104.14-34L104.14-34 103.04-30.6Q99.94-31.95 96.94-31.95L96.94-31.95Q93.39-31.95 91.37-30.53 89.34-29.1 89.39-26.65L89.39-26.65Q89.39-25.15 90.44-24.08 91.49-23 93.04-22.25 94.59-21.5 97.24-20.55L97.24-20.55Q100.79-19.25 103.04-18.07 105.29-16.9 106.87-14.83 108.44-12.75 108.44-9.65L108.44-9.65Q108.44-5.05 105.52-2.25 102.59 0.55 96.49 0.55L96.49 0.55Q92.79 0.55 90.17-0.83 87.54-2.2 86.17-4.38 84.79-6.55 84.69-8.9L84.69-8.9 88.44-9.15ZM114.79 0L114.79-35 131.49-35 131.49-31.55 118.39-31.55 118.39-20.65 127.14-20.65 125.99-17.15 118.39-17.15 118.39-3.25 131.39-3.25 131.39 0 114.79 0Z" fill="#000000" data-fill-palette-color="primary"></path></g></svg></g></svg></g></svg></g></svg></g><g transform="matrix(1,0,0,1,0,0.2578451479052575)"><svg viewBox="0 0 127.19278718512483 103.13805916210627" height="103.13805916210627" width="127.19278718512483"><g><svg xmlns="http://www.w3.org/2000/svg" xmlns:xlink="http://www.w3.org/1999/xlink" version="1.1" x="0" y="0" viewBox="0 0.0004204024777061388 240.0030000000001 194.6135795975223" style="enable-background:new 0 0 240.001 194.614;" xml:space="preserve" width="127.19278718512483" height="103.13805916210627" class="icon-icon-0" data-fill-palette-color="accent" id="icon-0"><g fill="#0a41c9" data-fill-palette-color="accent"><path d="M109.552 42.426c1.655 0.866 3.445 1.54 5.35 1.983 5.463 1.272 10.923 0.431 15.53-1.983 1.938-1.016 3.724-2.31 5.296-3.844 2.264-2.209 4.082-4.915 5.265-8 0.368-0.959 0.68-1.951 0.919-2.979 2.818-12.1-4.707-24.193-16.807-27.012-12.1-2.816-24.193 4.709-27.012 16.809-1.062 4.561-0.652 9.12 0.916 13.183 1.16 3.006 2.955 5.74 5.261 8C105.813 40.096 107.587 41.397 109.552 42.426z" fill="#000000" data-fill-palette-color="accent"></path><path d="M5.668 58.248c0 2.762 2.238 5 5 5h1.334c2.761 0 5-2.238 5-5V38.582h36.277c-3.413 12.549-4.965 21.474-5.003 28.439 0.05 4.216 0.472 7.939 2.661 11.737 1.1 1.863 2.814 3.674 4.935 4.838 2.089 1.172 4.396 1.636 6.376 1.636 0.022 0 0.044 0 0.065 0 3.15-0.031 5.594-0.909 7.785-1.912 3.8-1.807 7.045-4.294 10.237-7.026 2.194-1.904 4.336-3.953 6.336-5.978l9.805 41.776L68.148 124.79c-5.656 2.534-8.87 8.637-7.76 14.735l8 44c1.185 6.518 6.867 11.087 13.266 11.087 0.801 0 1.614-0.072 2.43-0.22 7.336-1.334 12.202-8.362 10.867-15.696l-6.109-33.594 29.016-13.006c0.767-0.344 1.478-0.758 2.146-1.218 0.668 0.46 1.379 0.874 2.146 1.218l29.013 13.005-6.108 33.594c-1.334 7.335 3.532 14.363 10.868 15.699 0.817 0.148 1.629 0.22 2.431 0.22 6.399 0 12.082-4.569 13.269-11.089l7.998-44c1.108-6.098-2.105-12.2-7.761-14.734l-28.326-12.7 9.73-41.456c3.135 3.154 6.563 6.339 10.189 9.002 1.913 1.392 3.875 2.654 6.061 3.683 2.191 1.004 4.635 1.881 7.788 1.91 0.026 0 0.053 0 0.079 0 1.974 0 4.275-0.466 6.36-1.633 3.239-1.779 5.302-4.874 6.27-7.683 1.012-2.867 1.31-5.716 1.324-8.895-0.04-6.962-1.592-15.889-5.002-28.438h36.67v19.666c0 2.762 2.238 5 5 5h1.334c2.76 0 5-2.238 5-5V38.582h5.666v-8h-5.666V10.916c0-2.762-2.24-5-5-5h-1.334c-2.762 0-5 2.238-5 5v19.666h-38.973c-1.597-4.473-6.424-6.97-11.031-5.598-2.855 0.849-4.964 2.994-5.897 5.598h-23.984c-1.041 2.997-2.619 5.695-4.615 8h29.149c3.528 12.136 5.176 20.727 5.582 25.9-0.208-0.163-0.418-0.331-0.628-0.506-3.841-3.071-8.313-7.683-11.663-11.435-1.684-1.881-3.106-3.554-4.096-4.743-0.496-0.596-0.883-1.071-1.142-1.39-0.26-0.321-0.371-0.461-0.371-0.461-1.866-2.357-4.674-3.521-7.464-3.396-0.472-0.075-0.948-0.126-1.438-0.126h-12.152c-4.039 2.894-8.966 4.575-14.254 4.575-1.867 0-3.742-0.217-5.574-0.642-3.188-0.742-6.137-2.083-8.72-3.934H93.575c-0.514 0-1.015 0.057-1.509 0.139-2.896-0.234-5.851 0.935-7.788 3.384h-0.002c0 0-0.048 0.06-0.178 0.223C83.135 47.375 78.29 53.3 72.89 58.647c-2.191 2.179-4.493 4.26-6.513 5.826 0.407-5.176 2.055-13.763 5.584-25.891h29.594c-0.85-0.98-1.649-2.016-2.349-3.14-0.964-1.549-1.737-3.18-2.328-4.86H72.511c-0.934-2.605-3.042-4.75-5.896-5.599-4.607-1.371-9.435 1.126-11.033 5.599H17.001V10.916c0-2.762-2.239-5-5-5h-1.334c-2.762 0-5 2.238-5 5v19.666H0v8h5.668V58.248z" fill="#000000" data-fill-palette-color="accent"></path></g></svg></g></svg></g></svg></g></svg></g><defs></defs></svg><rect width="395.52" height="70.59819845101946" fill="none" stroke="none" visibility="hidden"></rect></g></svg></g></svg>